<?xml version="1.0" encoding="UTF-8"?>
<!DOCTYPE svg PUBLIC "-//W3C//DTD SVG 1.1//EN" "http://www.w3.org/Graphics/SVG/1.1/DTD/svg11.dtd">
<svg xmlns="http://www.w3.org/2000/svg" version="1.1" width="1440px" height="320px" style="shape-rendering:geometricPrecision; text-rendering:geometricPrecision; image-rendering:optimizeQuality; fill-rule:evenodd; clip-rule:evenodd" xmlns:xlink="http://www.w3.org/1999/xlink">
<g><path style="opacity:0.999" fill="#0e1777" d="M 1439.5,31.5 C 1439.5,127.5 1439.5,223.5 1439.5,319.5C 959.5,319.5 479.5,319.5 -0.5,319.5C -0.5,297.833 -0.5,276.167 -0.5,254.5C 62.269,226.52 125.269,199.02 188.5,172C 275.047,134.927 363.38,102.594 453.5,75C 514.351,56.7748 576.517,46.9415 640,45.5C 693.617,45.7418 745.784,54.5751 796.5,72C 839.382,86.7762 882.049,102.11 924.5,118C 963.208,132.26 1002.87,142.927 1043.5,150C 1083.96,155.822 1124.29,154.822 1164.5,147C 1216.64,136.176 1266.64,119.176 1314.5,96C 1356.53,74.9846 1398.2,53.4846 1439.5,31.5 Z"/></g>
</svg>
